# AST/ASF file generated using VICON BodyLanguage
# -----------------------------------------------
:version 1.10
:name VICON
:units
  mass 1.0
  length 0.45
  angle deg
:documentation
   .ast/.asf automatically generated from VICON data using
   VICON BodyBuilder and BodyLanguage model FoxedUp or BRILLIANT.MOD
:root
   order TX TY TZ RX RY RZ
   axis XYZ
   position 0 0 0  
   orientation 0 0 0 
:bonedata
  begin
     id 1 
     name lhipjoint
     direction 0.623415 -0.642378 0.445763 
     length 2.49859 
     axis 0 0 0  XYZ
  end
  begin
     id 2 
     name lfemur
     direction 0.34202 -0.939693 0  
     length 6.69689  
     axis 0 0 20  XYZ
    dof rx ry rz
    limits (-160.0 20.0)
           (-70.0 70.0)
           (-60.0 70.0)
  end
  begin
     id 3 
     name ltibia
     direction 0.34202 -0.939693 0   
     length 7.37574   
     axis 0 0 20   XYZ
    dof rx
    limits (-10.0 170.0)
  end
  begin
     id 4 
     name lfoot
     direction 0.084323 -0.231675 0.969132   
     length 2.09111   
     axis -90 7.62852e-016 20   XYZ
    dof rx rz
    limits (-45.0 90.0)
           (-70.0 20.0)
  end
  begin
     id 5 
     name ltoes
     direction 1.5357e-011 -4.21957e-011 1   
     length 1.04989   
     axis -90 7.62852e-016 20   XYZ
    dof rx
    limits (-90.0 20.0)
  end
  begin
     id 6 
     name rhipjoint
     direction -0.605402 -0.653903 0.45376   
     length 2.45455  
     axis 0 0 0  XYZ 
  end
  begin
     id 7 
     name rfemur
     direction -0.34202 -0.939693 0   
     length 6.64523   
     axis 0 0 -20   XYZ
    dof rx ry rz
    limits (-160.0 20.0)
           (-70.0 70.0)
           (-70.0 60.0)
  end
  begin
     id 8 
     name rtibia
     direction -0.34202 -0.939693 0   
     length 7.3339   
     axis 0 0 -20   XYZ
    dof rx
    limits (-10.0 170.0)
 end
 begin
     id 9 
     name rfoot
     direction -0.120854 -0.332043 0.93549   
     length 2.23135  
     axis -90 -7.62852e-016 -20   XYZ
    dof rx rz
    limits (-45.0 90.0)
           (-20.0 70.0)
  end
  begin
     id 10 
     name rtoes
     direction -1.53563e-011 -4.21914e-011 1   
     length 1.10614   
     axis -90 -7.62852e-016 -20   XYZ
    dof rx
    limits (-90.0 20.0)
  end
  begin
     id 11 
     name lowerback
     direction 0.0319682 0.998615 -0.0417941   
     length 2.02718   
     axis 0 0 0   XYZ
    dof rx ry rz
    limits (-20.0 45.0)
           (-30.0 30.0)
           (-30.0 30.0)
  end
  begin
     id 12 
     name upperback
     direction 7.63181e-005 0.995808 0.0914691   
     length 1.97539   
     axis 0 0 0   XYZ
    dof rx ry rz
    limits (-20.0 45.0)
           (-30.0 30.0)
           (-30.0 30.0)
  end
  begin
     id 13 
     name thorax
     direction -0.016423 0.993627 0.111514   
     length 2.00349   
     axis 0 0 0   XYZ
    dof rx ry rz
    limits (-20.0 45.0)
           (-30.0 30.0)
           (-30.0 30.0)
  end
  begin
     id 14 
     name lowerneck
     direction -0.174763 0.981668 -0.0760716   
     length 1.71436   
     axis 0 0 0   XYZ
    dof rx ry rz
    limits (-20.0 45.0)
           (-30.0 30.0)
           (-30.0 30.0)
  end
  begin
     id 15 
     name upperneck
     direction 0.345458 0.934587 -0.0848868   
     length 1.72805   
     axis 0 0 0   XYZ
    dof rx ry rz
    limits (-20.0 45.0)
           (-30.0 30.0)
           (-30.0 30.0)
  end
  begin
     id 16
     name head
     direction 0.13001 0.989848 -0.0574291  
     length 1.767  
     axis 0 0 0   XYZ
    dof rx ry rz
    limits (-20.0 45.0)
           (-30.0 30.0)
           (-30.0 30.0)
  end
  begin
     id 17 
     name lclavicle
     direction 0.952951 0.290122 0.0878234  
     length 3.54654  
     axis 0 0 0   XYZ
    dof ry rz
    limits (-20.0 10.0)
           (0.0 20.0)
  end
  begin
     id 18 
     name lhumerus
     direction 1 -4.48957e-011 -4.56525e-028   
     length 5.19807   
     axis 180 -30 -90   XYZ
    dof rx ry rz
    limits (-60.0 90.0)
           (-90.0 90.0)
           (-90.0 90.0)
  end
  begin
     id 19
     name lradius
     direction 1 -4.48979e-011 -2.0317e-027   
     length 3.0937   
     axis 180 -30 -90   XYZ
    dof rx
    limits (-10.0 170.0)
  end
  begin
     id 20
     name lwrist
     direction 1 -4.48953e-011 -3.05809e-027   
     length 1.54685   
     axis 8.48514e-016 90 90   XYZ
    dof ry
    limits (-180.0 0.0)
 end
  begin
     id 21 
     name lhand
     direction 1 -4.48952e-011 -6.11639e-027   
     length 0.672632   
     axis 3.9013e-015 90 90   XYZ
    dof rx rz
    limits (-90.0 90.0)
           (-45.0 45.0)
  end
  begin
     id 22 
     name lfingers
     direction 1 -4.48925e-011 -1.22426e-026   
     length 0.542293   
     axis 7.80276e-015 90 90   XYZ
    dof rx
    limits (0.0 90.0)
  end
  begin
     id 23
     name lthumb
     direction 0.707107 -6.3486e-011 0.707107   
     length 0.778628   
     axis -90 45 5.37419e-014   XYZ
    dof rx rz
    limits (-45.0 45.0)
           (-45.0 45.0)
  end
  begin
     id 24 
     name rclavicle
     direction -0.960732 0.273675 -0.0457849   
     length 3.52079  
     axis 0 0 0   XYZ 
    dof ry rz
    limits (-10.0 20.0)
           (-20.0 0.0)
  end
  begin
     id 25 
     name rhumerus
     direction -1 -4.48976e-011 -1.63613e-027  
     length 5.45222   
     axis 180 30 90   XYZ
    dof rx ry rz
    limits (-90.0 60.0)
           (-90.0 90.0)
           (-90.0 90.0)
  end
  begin
     id 26 
     name rradius
     direction -1 -4.48957e-011 -7.00033e-028   
     length 3.01284   
     axis 180 30 90   XYZ
    dof rx
    limits (-10.0 170.0)
  end
  begin
     id 27 
     name rwrist
     direction -1 -4.48983e-011 -3.05543e-027   
     length 1.50642   
     axis 8.48514e-016 -90 -90   XYZ
    dof ry
    limits (-180.0 0.0)
  end
  begin
     id 28
     name rhand
     direction -1 -4.48984e-011 -6.11072e-027   
     length 0.622296   
     axis 3.9013e-015 -90 -90   XYZ
    dof rx rz
    limits (-90.0 90.0)
           (-45.0 45.0)
  end
  begin
     id 29
     name rfingers
     direction -1 -4.48865e-011 -1.22637e-026   
     length 0.501711   
     axis 7.80276e-015 -90 -90   XYZ
    dof rx
    limits (0.0 90.0)
  end
  begin
     id 30
     name rthumb
     direction -0.707107 -6.34932e-011 0.707107   
     length 0.72036   
     axis -90 -45 -5.37419e-014   XYZ
    dof rx rz
    limits (-45.0 45.0)
           (-45.0 45.0)
  end
:hierarchy
  begin
    root lhipjoint rhipjoint lowerback
    lhipjoint lfemur
    lfemur ltibia
    ltibia lfoot
    lfoot ltoes
    rhipjoint rfemur
    rfemur rtibia
    rtibia rfoot
    rfoot rtoes
    lowerback upperback
    upperback thorax
    thorax lowerneck lclavicle rclavicle
    lowerneck upperneck
    upperneck head
    lclavicle lhumerus
    lhumerus lradius
    lradius lwrist
    lwrist lhand lthumb
    lhand lfingers
    rclavicle rhumerus
    rhumerus rradius
    rradius rwrist
    rwrist rhand rthumb
    rhand rfingers
  end

#!OML:ASF H:\Not Pregnant\Project 1\Capture day 1\Session 1\non-pregnant.ASF
:FULLY-SPECIFIED
:DEGREES
120
root -5.67698 16.3583 35.0719 141.499 -83.9548 -128.104
lowerback -12.6299 2.52021 2.83471
upperback -6.90388 2.68598 0.165544
thorax -0.036305 1.12724 -1.08759
lowerneck 19.7831 -9.32176 -31.0468
upperneck -9.87352 -20.0764 44.0559
head 2.8968 -13.1475 23.2599
rclavicle 1.635e-014 -7.15625e-015
rhumerus 12.1512 -24.2659 -62.0037
rradius 102.885
rwrist 54.9852
rhand -48.8888 18.1091
rfingers 7.12502
rthumb -21.5222 -10.7152
lclavicle 1.635e-014 -7.15625e-015
lhumerus -42.3748 -6.31734 89.9186
lradius 33.9885
lwrist 49.9497
lhand 14.5697 -5.2279
lfingers 7.12502
lthumb 39.4465 20.1628
rfemur 0 0 0
rtibia 0
rfoot 0 0
rtoes 0
lfemur -17.3879 5.82188 -16.6999
ltibia 16.0164
lfoot -13.4061 -6.74126
ltoes -15.9969
121
root -5.67962 16.3583 35.0685 141.19 -83.9758 -127.791
lowerback -12.5798 2.50122 2.76677
upperback -6.96861 2.66759 0.171009
thorax -0.134877 1.11675 -1.04935
lowerneck 19.7119 -9.2841 -31.0698
upperneck -9.58897 -20.066 43.95
head 2.96019 -13.1201 23.185
rclavicle -2.8128e-014 -2.18663e-014
rhumerus 12.2467 -23.8994 -62.1835
rradius 103.126
rwrist 49.8765
rhand -47.7609 12.7952
rfingers 7.12502
rthumb -20.4386 -16.1491
lclavicle -2.8128e-014 -2.18663e-014
lhumerus -42.5102 -6.1453 89.7689
lradius 33.9292
lwrist 49.9916
lhand 14.6007 -5.11419
lfingers 7.12502
lthumb 39.4757 20.2679
rfemur 0 0 0
rtibia 0
rfoot 0 0
rtoes 0
lfemur -17.3998 5.80779 -16.6796
ltibia 16.0398
lfoot -13.4234 -6.76007
ltoes -15.9801
122
root -5.68258 16.3585 35.0645 140.951 -83.9848 -127.546
lowerback -12.553 2.47096 2.71085
upperback -7.02072 2.63214 0.177878
thorax -0.207887 1.09803 -1.01737
lowerneck 19.6063 -9.23873 -31.0991
upperneck -9.27429 -20.0424 43.8342
head 3.0312 -13.0819 23.105
rclavicle -1.77415e-014 5.56597e-015
rhumerus 12.3819 -23.2575 -62.3589
rradius 103.452
rwrist 43.6579
rhand -46.7031 7.63936
rfingers 7.12502
rthumb -19.4219 -21.4107
lclavicle -1.77415e-014 5.56597e-015
lhumerus -42.6301 -5.9268 89.5808
lradius 33.8504
lwrist 49.9573
lhand 14.68 -5.04677
lfingers 7.12502
lthumb 39.5503 20.3134
rfemur 0 0 0
rtibia 0
rfoot 0 0
rtoes 0
lfemur -17.405 5.79964 -16.6526
ltibia 16.0572
lfoot -13.4364 -6.77318
ltoes -15.9478
123
root -5.68584 16.3585 35.06 140.797 -83.9836 -127.389
lowerback -12.5476 2.4441 2.67436
upperback -7.06328 2.59867 0.169557
thorax -0.257808 1.08001 -1.01077
lowerneck 19.4986 -9.19447 -31.106
upperneck -8.95346 -20.0151 43.7149
head 3.09851 -13.042 23.0181
rclavicle -1.95306e-014 -3.97569e-015
rhumerus 12.5321 -22.4158 -62.5137
rradius 103.895
rwrist 36.426
rhand -46.0244 3.10304
rfingers 7.12502
rthumb -18.7691 -26.0115
lclavicle -1.95306e-014 -3.97569e-015
lhumerus -42.7423 -5.73099 89.3716
lradius 33.7583
lwrist 49.8621
lhand 14.7622 -5.03923
lfingers 7.12502
lthumb 39.6278 20.298
rfemur 0 0 0
rtibia 0
rfoot 0 0
rtoes 0
lfemur -17.4037 5.79365 -16.622
ltibia 16.0708
lfoot -13.4477 -6.77005
ltoes -15.9399
124
root -5.68926 16.3586 35.0555 140.777 -83.975 -127.363
lowerback -12.5681 2.41771 2.6356
upperback -7.09411 2.56524 0.160267
thorax -0.281554 1.06259 -1.00276
lowerneck 19.3892 -9.1547 -31.1008
upperneck -8.63333 -19.9883 43.5866
head 3.16271 -13.0011 22.9208
rclavicle -2.33572e-015 2.38542e-015
rhumerus 12.7157 -21.4382 -62.6377
rradius 104.477
rwrist 28.3866
rhand -45.8848 -0.0952204
rfingers 7.12502
rthumb -18.6349 -29.2226
lclavicle -2.33572e-015 2.38542e-015
lhumerus -42.8385 -5.5325 89.1555
lradius 33.6577
lwrist 49.7702
lhand 14.8609 -5.03891
lfingers 7.12502
lthumb 39.7207 20.2708
rfemur 0 0 0
rtibia 0
rfoot 0 0
rtoes 0
lfemur -17.3964 5.78486 -16.5939
ltibia 16.0768
lfoot -13.4535 -6.74856
ltoes -15.9233
125
root -5.69284 16.3586 35.051 140.856 -83.9607 -127.435
lowerback -12.5909 2.38542 2.57755
upperback -7.12799 2.52536 0.169889
thorax -0.309091 1.04259 -0.965111
lowerneck 19.273 -9.11564 -31.107
upperneck -8.29874 -19.9612 43.432
head 3.2283 -12.9551 22.8061
rclavicle 1.65488e-014 -7.15625e-015
rhumerus 12.9244 -20.3881 -62.7113
rradius 105.226
rwrist 19.8317
rhand -46.222 -1.49247
rfingers 7.12502
rthumb -18.9592 -30.5885
lclavicle 1.65488e-014 -7.15625e-015
lhumerus -42.9447 -5.31411 88.9648
lradius 33.5392
lwrist 49.638
lhand 14.951 -5.10393
lfingers 7.12502
lthumb 39.8055 20.1805
rfemur 0 0 0
rtibia 0
rfoot 0 0
rtoes 0
lfemur -17.383 5.78224 -16.5701
ltibia 16.0737
lfoot -13.4579 -6.71723
ltoes -15.9492
126
root -5.69662 16.3586 35.0472 141.149 -83.958 -127.72
lowerback -12.6199 2.35095 2.4929
upperback -7.16408 2.48484 0.185162
thorax -0.336827 1.023 -0.906603
lowerneck 19.1539 -9.0779 -31.1205
upperneck -7.95756 -19.933 43.2553
head 3.29248 -12.9049 22.6772
rclavicle -1.18774e-014 -3.18055e-015
rhumerus 13.1557 -19.4024 -62.7871
rradius 106.129
rwrist 11.176
rhand -46.7102 -1.19982
rfingers 7.12502
rthumb -19.4286 -30.2492
lclavicle -1.18774e-014 -3.18055e-015
lhumerus -43.0609 -5.11718 88.8214
lradius 33.391
lwrist 49.3436
lhand 14.9734 -5.30721
lfingers 7.12502
lthumb 39.8266 19.9709
rfemur 0 0 0
rtibia 0
rfoot 0 0
rtoes 0
lfemur -17.3656 5.78307 -16.576
ltibia 16.0595
lfoot -13.4597 -6.68528
ltoes -15.9708
127
root -5.7005 16.3586 35.0439 141.497 -83.9522 -128.057
lowerback -12.6528 2.32113 2.40804
upperback -7.20002 2.45018 0.207633
thorax -0.362379 1.00649 -0.839648
lowerneck 19.0348 -9.04626 -31.1419
upperneck -7.61723 -19.9116 43.063
head 3.35796 -12.8557 22.5373
rclavicle -1.61513e-014 9.14409e-015
rhumerus 13.3961 -18.6048 -62.8941
rradius 107.125
rwrist 2.99843
rhand -46.9491 0.413449
rfingers 7.12502
rthumb -19.6584 -28.6126
lclavicle -1.61513e-014 9.14409e-015
lhumerus -43.1818 -4.95688 88.7309
lradius 33.2133
lwrist 48.9193
lhand 14.9222 -5.64915
lfingers 7.12502
lthumb 39.7785 19.6434
rfemur 0 0 0
rtibia 0
rfoot 0 0
rtoes 0
lfemur -17.3442 5.79135 -16.5865
ltibia 16.0376
lfoot -13.4628 -6.6554
ltoes -16.0164
128
root -5.70445 16.3586 35.041 141.911 -83.9472 -128.461
lowerback -12.6894 2.29738 2.32415
upperback -7.23532 2.42333 0.229771
thorax -0.384871 0.99394 -0.772477
lowerneck 18.9176 -9.01935 -31.1616
upperneck -7.27919 -19.8935 42.8585
head 3.42158 -12.8068 22.388
rclavicle -5.01931e-015 -2.78299e-015
rhumerus 13.6236 -18.0585 -63.0463
rradius 108.086
rwrist -3.93782
rhand -46.5777 2.66206
rfingers 7.12502
rthumb -19.3012 -26.4001
lclavicle -5.01931e-015 -2.78299e-015
lhumerus -43.3003 -4.82326 88.6691
lradius 33.0289
lwrist 48.4309
lhand 14.8298 -5.98429
lfingers 7.12502
lthumb 39.6914 19.3341
rfemur 0 0 0
rtibia 0
rfoot 0 0
rtoes 0
lfemur -17.3212 5.8044 -16.6052
ltibia 16.0141
lfoot -13.4667 -6.62713
ltoes -16.0682
129
root -5.70834 16.3585 35.0385 142.316 -83.9343 -128.856
lowerback -12.7278 2.27756 2.24936
upperback -7.26801 2.40059 0.261092
thorax -0.403582 0.983468 -0.700266
lowerneck 18.7933 -8.99696 -31.1958
upperneck -6.9411 -19.8808 42.6436
head 3.4897 -12.7587 22.2336
rclavicle -1.49585e-014 3.57812e-015
rhumerus 13.823 -17.7357 -63.2205
rradius 108.841
rwrist -8.7439
rhand -45.536 4.59803
rfingers 7.12502
rthumb -18.2994 -24.5612
lclavicle -1.49585e-014 3.57812e-015
lhumerus -43.4121 -4.68714 88.6258
lradius 32.8523
lwrist 48.0307
lhand 14.7494 -6.25858
lfingers 7.12502
lthumb 39.6157 19.0823
rfemur 0 0 0
rtibia 0
rfoot 0 0
rtoes 0
lfemur -17.3022 5.82087 -16.6187
ltibia 16.0007
lfoot -13.4782 -6.59496
ltoes -16.141
130
root -5.71222 16.3582 35.0358 142.618 -83.9086 -129.155
lowerback -12.7643 2.26034 2.19654
upperback -7.29591 2.37929 0.293527
thorax -0.417368 0.973335 -0.638999
lowerneck 18.666 -8.97684 -31.2417
upperneck -6.60085 -19.8774 42.4368
head 3.56702 -12.7168 22.0875
rclavicle 4.67144e-015 9.14409e-015
rhumerus 13.9591 -17.5361 -63.358
rradius 109.255
rwrist -10.7438
rhand -44.0395 5.74363
rfingers 7.12502
rthumb -16.8592 -23.5445
lclavicle 4.67144e-015 9.14409e-015
lhumerus -43.5141 -4.55358 88.5742
lradius 32.6878
lwrist 47.7143
lhand 14.7012 -6.44805
lfingers 7.12502
lthumb 39.5704 18.9062
rfemur 0 0 0
rtibia 0
rfoot 0 0
rtoes 0
lfemur -17.2816 5.83469 -16.6119
ltibia 15.9991
lfoot -13.4931 -6.5597
ltoes -16.1906
131
root -5.71607 16.3578 35.0329 142.827 -83.8743 -129.366
lowerback -12.7965 2.24209 2.15552
upperback -7.31906 2.35573 0.331282
thorax -0.428219 0.962047 -0.579153
lowerneck 18.5588 -8.98362 -31.1104
upperneck -6.41424 -19.8231 42.571
head 3.57817 -12.6461 21.5015
rclavicle -2.73329e-014 -3.97569e-016
rhumerus 14.0238 -17.3748 -63.4038
rradius 109.222
rwrist -9.55591
rhand -42.4972 6.23201
rfingers 7.12502
rthumb -15.3741 -23.1764
lclavicle -2.73329e-014 -3.97569e-016
lhumerus -43.6092 -4.41893 88.5229
lradius 32.5423
lwrist 47.5002
lhand 14.6627 -6.55966
lfingers 7.12502
lthumb 39.5341 18.8053
rfemur 0 0 0
rtibia 0
rfoot 0 0
rtoes 0
lfemur -17.2605 5.84579 -16.5891
ltibia 16.0111
lfoot -13.5122 -6.52079
ltoes -16.2298
132
root -5.71957 16.3572 35.0302 143.078 -83.8386 -129.626
lowerback -12.8217 2.2285 2.11635
upperback -7.33983 2.3387 0.364564
thorax -0.439895 0.95406 -0.524354
lowerneck 18.4335 -8.96423 -31.1821
upperneck -6.07847 -19.8378 42.3892
head 3.67097 -12.6179 21.39
rclavicle 3.04638e-014 6.36111e-015
rhumerus 14.0078 -17.2482 -63.3455
rradius 108.71
rwrist -5.19345
rhand -41.254 6.62684
rfingers 7.12502
rthumb -14.1764 -22.8694
lclavicle 3.04638e-014 6.36111e-015
lhumerus -43.699 -4.3119 88.4886
lradius 32.407
lwrist 47.3079
lhand 14.5911 -6.66066
lfingers 7.12502
lthumb 39.4666 18.7241
rfemur 0 0 0
rtibia 0
rfoot 0 0
rtoes 0
lfemur -17.2383 5.85227 -16.5688
ltibia 16.0294
lfoot -13.5312 -6.47399
ltoes -16.2553
133
root -5.72263 16.3566 35.0278 143.358 -83.8004 -129.917
lowerback -12.8919 2.25711 2.21457
upperback -7.31784 2.36511 0.281654
thorax -0.371352 0.963793 -0.659496
lowerneck 18.3085 -8.96433 -31.1345
upperneck -5.79157 -19.8586 42.2866
head 3.75285 -12.6065 21.3011
rclavicle -1.63003e-014 1.27222e-014
rhumerus 13.9214 -17.3512 -63.3444
rradius 107.787
rwrist 1.94262
rhand -40.6632 7.48764
rfingers 7.12502
rthumb -13.6071 -22.0477
lclavicle -1.63003e-014 1.27222e-014
lhumerus -43.7204 -4.42986 88.3993
lradius 32.2852
lwrist 47.1027
lhand 14.3785 -6.8337
lfingers 7.12502
lthumb 39.2663 18.6095
rfemur 0 0 0
rtibia 0
rfoot 0 0
rtoes 0
lfemur -17.2106 5.85803 -16.5499
ltibia 16.0465
lfoot -13.5474 -6.42274
ltoes -16.2799
134
root -5.72523 16.3559 35.0261 143.772 -83.7706 -130.347
lowerback -12.9971 2.31749 2.40076
upperback -7.26295 2.42571 0.106961
thorax -0.241072 0.988373 -0.933094
lowerneck 18.1811 -8.98175 -30.9805
upperneck -5.55162 -19.8794 42.2398
head 3.81933 -12.6041 21.2229
rclavicle -1.59028e-015 -7.55382e-015
rhumerus 13.8016 -17.762 -63.4369
rradius 106.597
rwrist 11.068
rhand -40.9876 8.94163
rfingers 7.12502
rthumb -13.9197 -20.5725
lclavicle -1.59028e-015 -7.55382e-015
lhumerus -43.6884 -4.73488 88.2858
lradius 32.1738
lwrist 46.8036
lhand 13.9998 -7.09064
lfingers 7.12502
lthumb 38.9094 18.4553
rfemur 0 0 0
rtibia 0
rfoot 0 0
rtoes 0
lfemur -17.1768 5.85662 -16.5509
ltibia 16.0537
lfoot -13.5569 -6.36238
ltoes -16.3275
